<svg width="40" height="40" viewBox="0 0 40 40" fill="none" xmlns="http://www.w3.org/2000/svg">
<path d="M40 20C40 31.0457 31.0457 40 20 40C8.95431 40 0 31.0457 0 20C0 8.95431 8.95431 0 20 0C31.0457 0 40 8.95431 40 20Z" fill="white"/>
<path d="M19.9425 12C19.9425 14.651 17.7934 16.8 15.1425 16.8C12.4915 16.8 10.3425 14.651 10.3425 12C10.3425 9.34903 12.4915 7.2 15.1425 7.2C17.7934 7.2 19.9425 9.34903 19.9425 12Z" fill="#0D0D0E"/>
<path d="M25.8782 10.8041C30.7499 17.9257 31.0039 26.2268 26.4455 29.345C21.8872 32.4632 14.2426 29.2178 9.37096 22.0962C4.49929 14.9745 18.1424 26.4086 22.7008 23.2904C27.2591 20.1721 21.0066 3.68249 25.8782 10.8041Z" fill="#0D0D0E"/>
</svg>
